<svg width="1870" height="480" viewBox="0 0 1870 480" fill="none" xmlns="http://www.w3.org/2000/svg">
<path d="M2.17557e-06 480V107.5H52V167.5L44 163C46 153 51.6667 143.5 61 134.5C70.3333 125.167 81.6667 117.667 95 112C108.667 106 122.667 103 137 103C160.667 103 181.667 108.833 200 120.5C218.333 132.167 232.833 148.167 243.5 168.5C254.167 188.833 259.5 212.167 259.5 238.5C259.5 264.5 254.167 287.833 243.5 308.5C233.167 328.833 218.833 345 200.5 357C182.167 368.667 161.5 374.5 138.5 374.5C123.167 374.5 108.333 371.5 94 365.5C79.6667 359.167 67.5 351.167 57.5 341.5C47.5 331.833 41.3333 321.833 39 311.5L52 304.5V480H2.17557e-06ZM130 327C145.333 327 159 323.167 171 315.5C183 307.833 192.5 297.333 199.5 284C206.5 270.667 210 255.5 210 238.5C210 221.5 206.5 206.5 199.5 193.5C192.833 180.167 183.5 169.667 171.5 162C159.5 154.333 145.667 150.5 130 150.5C114.333 150.5 100.5 154.333 88.5 162C76.5 169.333 67 179.667 60 193C53 206.333 49.5 221.5 49.5 238.5C49.5 255.5 53 270.667 60 284C67 297.333 76.5 307.833 88.5 315.5C100.5 323.167 114.333 327 130 327ZM437.93 375C410.93 375 386.93 369.333 365.93 358C345.263 346.333 328.93 330.5 316.93 310.5C305.263 290.5 299.43 267.5 299.43 241.5C299.43 220.833 302.763 202 309.43 185C316.096 168 325.263 153.333 336.93 141C348.93 128.333 363.096 118.667 379.43 112C396.096 105 414.096 101.5 433.43 101.5C450.43 101.5 466.263 104.833 480.93 111.5C495.596 117.833 508.263 126.667 518.93 138C529.93 149.333 538.263 162.833 543.93 178.5C549.93 193.833 552.763 210.667 552.43 229L551.93 251H337.43L325.93 210H507.43L499.93 218.5V206.5C498.93 195.5 495.263 185.667 488.93 177C482.596 168.333 474.596 161.5 464.93 156.5C455.263 151.5 444.763 149 433.43 149C415.43 149 400.263 152.5 387.93 159.5C375.596 166.167 366.263 176.167 359.93 189.5C353.596 202.5 350.43 218.667 350.43 238C350.43 256.333 354.263 272.333 361.93 286C369.596 299.333 380.43 309.667 394.43 317C408.43 324.333 424.596 328 442.93 328C455.93 328 467.93 325.833 478.93 321.5C490.263 317.167 502.43 309.333 515.43 298L541.43 334.5C533.43 342.5 523.596 349.5 511.93 355.5C500.596 361.5 488.43 366.333 475.43 370C462.763 373.333 450.263 375 437.93 375ZM700.398 375C681.732 375 665.398 370.667 651.398 362C637.732 353.333 627.065 341.167 619.398 325.5C612.065 309.833 608.398 291.167 608.398 269.5V107.5H659.898V255.5C659.898 278.5 665.232 296.667 675.898 310C686.898 323.333 702.065 330 721.398 330C731.065 330 739.898 328.5 747.898 325.5C755.898 322.167 762.732 317.667 768.398 312C774.398 306.333 779.065 299.5 782.398 291.5C785.732 283.5 787.398 274.833 787.398 265.5V107.5H838.898V370H787.398V315L796.398 309C792.398 321.333 785.565 332.5 775.898 342.5C766.565 352.5 755.398 360.5 742.398 366.5C729.398 372.167 715.398 375 700.398 375Z" fill="#26F527"/>
<path d="M932.133 375.5C921.133 375.5 912.633 372.333 906.633 366C900.633 359.333 897.633 350 897.633 338C897.633 327 900.799 318 907.133 311C913.466 304 921.799 300.5 932.133 300.5C943.133 300.5 951.633 303.833 957.633 310.5C963.633 316.833 966.633 326 966.633 338C966.633 349 963.466 358 957.133 365C950.799 372 942.466 375.5 932.133 375.5Z" fill="#FF1178"/>
<path d="M1134.4 375C1110.4 375 1088.9 369.167 1069.9 357.5C1051.24 345.5 1036.4 329.333 1025.4 309C1014.4 288.333 1008.9 264.833 1008.9 238.5C1008.9 212.167 1014.24 188.833 1024.9 168.5C1035.9 147.833 1050.74 131.667 1069.4 120C1088.07 108 1109.24 102 1132.9 102C1145.9 102 1158.4 104.167 1170.4 108.5C1182.74 112.5 1193.74 118.167 1203.4 125.5C1213.07 132.5 1220.57 140.333 1225.9 149C1231.57 157.333 1234.4 165.833 1234.4 174.5L1219.4 175.5V-4.76837e-06H1270.9V370H1219.4V307.5H1229.4C1229.4 315.5 1226.74 323.5 1221.4 331.5C1216.07 339.167 1208.9 346.333 1199.9 353C1191.24 359.667 1181.07 365 1169.4 369C1158.07 373 1146.4 375 1134.4 375ZM1141.4 330.5C1157.07 330.5 1170.9 326.5 1182.9 318.5C1194.9 310.5 1204.24 299.667 1210.9 286C1217.9 272 1221.4 256.167 1221.4 238.5C1221.4 220.833 1217.9 205.167 1210.9 191.5C1204.24 177.5 1194.9 166.5 1182.9 158.5C1170.9 150.5 1157.07 146.5 1141.4 146.5C1125.74 146.5 1111.9 150.5 1099.9 158.5C1087.9 166.5 1078.4 177.5 1071.4 191.5C1064.74 205.167 1061.4 220.833 1061.4 238.5C1061.4 256.167 1064.74 272 1071.4 286C1078.4 299.667 1087.9 310.5 1099.9 318.5C1111.9 326.5 1125.74 330.5 1141.4 330.5ZM1464.3 375C1437.3 375 1413.3 369.333 1392.3 358C1371.63 346.333 1355.3 330.5 1343.3 310.5C1331.63 290.5 1325.8 267.5 1325.8 241.5C1325.8 220.833 1329.13 202 1335.8 185C1342.46 168 1351.63 153.333 1363.3 141C1375.3 128.333 1389.46 118.667 1405.8 112C1422.46 105 1440.46 101.5 1459.8 101.5C1476.8 101.5 1492.63 104.833 1507.3 111.5C1521.96 117.833 1534.63 126.667 1545.3 138C1556.3 149.333 1564.63 162.833 1570.3 178.5C1576.3 193.833 1579.13 210.667 1578.8 229L1578.3 251H1363.8L1352.3 210H1533.8L1526.3 218.5V206.5C1525.3 195.5 1521.63 185.667 1515.3 177C1508.96 168.333 1500.96 161.5 1491.3 156.5C1481.63 151.5 1471.13 149 1459.8 149C1441.8 149 1426.63 152.5 1414.3 159.5C1401.96 166.167 1392.63 176.167 1386.3 189.5C1379.96 202.5 1376.8 218.667 1376.8 238C1376.8 256.333 1380.63 272.333 1388.3 286C1395.96 299.333 1406.8 309.667 1420.8 317C1434.8 324.333 1450.96 328 1469.3 328C1482.3 328 1494.3 325.833 1505.3 321.5C1516.63 317.167 1528.8 309.333 1541.8 298L1567.8 334.5C1559.8 342.5 1549.96 349.5 1538.3 355.5C1526.96 361.5 1514.8 366.333 1501.8 370C1489.13 373.333 1476.63 375 1464.3 375ZM1715.88 370L1604.88 107.5H1660.38L1740.38 304L1730.88 308.5L1816.38 107.5H1869.38L1752.88 370H1715.88Z" fill="#0ABCF7"/>
</svg>
