<?xml version="1.0" encoding="utf-8"?>
<!-- Generator: Adobe Illustrator 26.2.1, SVG Export Plug-In . SVG Version: 6.00 Build 0)  -->
<svg version="1.1" id="Layer_1" xmlns="http://www.w3.org/2000/svg" xmlns:xlink="http://www.w3.org/1999/xlink" x="0px" y="0px"
	 viewBox="0 0 719.1 92.6" style="enable-background:new 0 0 719.1 92.6;" xml:space="preserve">
<style type="text/css">
	.st0{fill:#FFFFFF;}
</style>
<g>
	<path class="st0" d="M111.8,79.1V37.5h10.5v-4.6h-10.5V22.4c0-10.2,1.3-16.7,7.9-16.7c4.8,0,5.2,4.3,5.3,7.3
		c0.4,4.1,2.1,5.8,5.3,5.8c3,0,5-2,5-6c0-6.2-5.8-11.5-13.9-11.5c-11.8,0-19.1,8-19.1,26v5.8h-7.6v4.6h7.6v41.6
		c0,6.7-1.1,8.6-6.6,8.6c-5.6,0-6.5-1.9-6.5-8.6V2.7l-1.5-1.5L80.8,5l-8.1,4.1l1.2,2.3c6.1-3,6-1.7,6,5.3v62.3
		c0,5.6-0.4,7.7-4.1,8.4c-2.1,0.3-3.6-0.2-4.2-0.5c-2.2-1.2-3-3.4-4.3-7.3L41.6,0.8h-5.4L11.3,79.6c-2.2,6.6-4.5,8-11.1,8v2.6H24
		v-2.6c-10.2,0-10.2-1.7-8.3-8l5-16h31.1l5.2,16c2.1,6.3-1.3,8-11.4,8v2.6h27.3h4.8h17h1.4h26.5v-2.6
		C113.3,87.7,111.8,86,111.8,79.1z M22.1,60.2l12.2-39.7l1.9-6l14.4,45.6H22.1z"/>
	<path class="st0" d="M144.4,30.7c-15.2,0-24.5,13.4-24.5,30.8c0,17.6,9.3,30.8,24.5,30.8c15.1,0,24.4-13.3,24.4-30.8
		C168.8,44.1,159.5,30.7,144.4,30.7z M146.7,87.9c-8.4,0.7-14.3-7.8-15.9-25.1c-1.4-17.4,3-26.6,11.2-27.4
		c8.4-0.8,14.4,7.7,15.9,25.1C159.3,77.9,154.9,87.1,146.7,87.9z"/>
	<path class="st0" d="M215,79.1V46.4c0-10-3.6-15.6-11.6-15.6c-7.2,0-13.6,5.2-17.7,11.2h-0.3v-9.7l-1.5-1.5l-6.9,3.9l-8.1,4L170,41
		c6.1-3,6-1.6,6,5.4v32.7c0,7-1.1,8.6-7.7,8.6v2.6h25v-2.6c-6.1,0-7.8-1.6-7.8-8.6V46.5c3.9-5.1,9.3-8.8,13.5-8.8
		c4.2,0,6.8,3,6.8,8.7v32.7c0,7-1.8,8.6-7.8,8.6v2.6h25v-2.6C216.1,87.7,215,86,215,79.1z"/>
	<path class="st0" d="M240.8,56.1c-6.5-5.6-10.6-10-10.6-15c0-2.6,1.6-5.8,6.2-5.8c7,0,11.7,6.4,13.3,14.4h2.5V31.8h-2.5
		c0,2.2,0,3.3-1.3,3.3c-1.8,0-4.7-4.3-12.4-4.3c-8.5,0-14.2,5.5-14.2,13.6c0,8.4,5.6,12.2,13,18.8c7.4,6.5,12.2,11.3,12.2,17.6
		c0,4.5-2.2,7.3-6.8,7.3c-8.6,0-14.2-7.9-15.7-18.5h-2.5v21.8h2.5c0-2.2,0.3-3.3,1.7-3.3c2.3,0,5.8,4.3,14.3,4.3
		c7.9,0,15-4.7,15-14.9C255.4,68.4,250.7,64.5,240.8,56.1z"/>
	<path class="st0" d="M281.5,30.7c-15.2,0-24.5,13.4-24.5,30.8c0,17.6,9.3,30.8,24.5,30.8c15.1,0,24.4-13.3,24.4-30.8
		C305.9,44.1,296.6,30.7,281.5,30.7z M283.8,87.9c-8.4,0.7-14.3-7.8-15.9-25.1c-1.4-17.4,3-26.6,11.2-27.4
		c8.4-0.8,14.4,7.7,15.9,25.1C296.4,77.9,292,87.1,283.8,87.9z"/>
	<path class="st0" d="M388.2,84.5c-3.5,0-8-2-11.1-6.8c4.8-7.5,8.8-17.6,11.2-26.1c2-6.7,4.6-8.3,12.4-8.3v-2.5h-22.4v2.5
		c7.3,0,7.4,1.5,5.8,8.4c-2.2,7.8-6.2,16.5-9.8,22.5c-3.5-4.6-7.3-10.6-10.8-17c-2.8-5.1-5.2-9.9-7.1-14.4c0.7-0.6,2.3-1.7,3.1-2.3
		c10.5-8,18.2-15.5,18.2-25.2c0-8.1-5-15.1-16.1-15.1c-11.6,0-21.2,7.1-21.2,20.5c0,6.6,2.3,14.9,6,23.5
		c-11.4,8.3-19.8,16-19.8,28.2c0,13.6,10.4,20.1,23.4,20.1c8.9,0,15.7-2.8,21.1-7.3c4.6,4.9,9,7.3,14.1,7.3c10.3,0,15-9.7,16.6-20.9
		h-2.6C397.5,79.7,393.1,84.5,388.2,84.5z M362.7,4.6c6.7,0,9.3,5.4,9.3,10.6c0,7.3-5.9,14.3-17.5,22.9l-0.3,0.2
		c-2.9-7.7-4.5-14.2-4.5-18.8C349.8,12.5,355,4.6,362.7,4.6z M353.7,88c-8.9,0-16.1-6.6-16.1-16.8c0-8.3,4-15.7,10.8-22.5
		c1.7,3.7,4.1,8.1,6.1,11.6c5.3,9.3,9.8,16.5,13.8,21.6C364.1,85.7,359.3,88,353.7,88z"/>
	<path class="st0" d="M521.9,84.4c-8.6,0-13.8-11.1-13.8-25.8l29.6,0c0-15.9-6.1-27.8-18.5-27.8c-13.3,0-20.9,14.6-20.9,31.3
		c0,18.6,7.5,30.4,19.9,30.4c10.1,0,17.3-8.3,19.6-25h-2.6C532.1,80.3,527.1,84.4,521.9,84.4z M518.7,35.3c6.5,0,9.3,8.4,9.3,18.8
		h-19.8C508.7,43.1,512.3,35.3,518.7,35.3z"/>
	<path class="st0" d="M676,67.5c-3,12.8-8,16.9-13.3,16.9c-8.6,0-13.8-11.1-13.8-25.8l29.6,0c0-15.9-6.1-27.8-18.5-27.8
		c-13.3,0-20.9,14.6-20.9,31.3c0,18.6,7.5,30.4,19.9,30.4c10.1,0,17.3-8.3,19.6-25H676z M659.6,35.3c6.5,0,9.3,8.4,9.3,18.8H649
		C649.6,43.1,653.2,35.3,659.6,35.3z"/>
	<path class="st0" d="M569.3,30.7c-7.2,0-12.3,4.6-17.1,11h-0.4v-39l-1.4-1.5L535.6,9l1.2,2.3c5.9-2.9,5.8-1.6,5.8,5.4v67.1
		c5.9,4.1,11.8,8.6,20.5,8.6c14.3,0,23.5-15.7,23.5-35C586.5,40.4,579.3,30.7,569.3,30.7z M562.4,88c-4.2,0-7.7-3.3-10.5-6.4V46.2
		c3.4-4.2,7.3-8.6,12.9-8.6c6.5,0,10.1,7.2,10.1,23C574.9,73.6,571.8,88,562.4,88z"/>
	<path class="st0" d="M618.6,30.7c-7.2,0-12.3,4.6-17.1,11h-0.4v-39l-1.4-1.5L584.8,9l1.2,2.3c5.9-2.9,5.8-1.6,5.8,5.4v67.1
		c5.9,4.1,11.8,8.6,20.5,8.6c14.3,0,23.5-15.7,23.5-35C635.7,40.4,628.5,30.7,618.6,30.7z M611.6,88c-4.2,0-7.7-3.3-10.5-6.4V46.2
		c3.4-4.2,7.3-8.6,12.9-8.6c6.5,0,10.1,7.2,10.1,23C624.1,73.6,621.1,88,611.6,88z"/>
	<path class="st0" d="M710.5,30.7c-7.1,0-11.7,6.2-14.6,11.3h-0.3v-9.8l-1.5-1.5l-6.9,3.9l-8.1,4l1.2,2.3c6.1-3,6-1.6,6,5.4v32.7
		c0,7-1.1,8.6-7.7,8.6v2.6h28.5v-2.6c-9.9,0-11.4-1.6-11.4-8.6V48.2c3.6-6.3,6.1-9.7,9.3-9.7c1.1,0,1.7,0.5,2.5,1.8
		c1,1.7,2.3,3,5.3,3c3.7,0,5.8-2.8,5.8-6.1C718.6,33.4,715.2,30.7,710.5,30.7z"/>
	<path class="st0" d="M513.5,3.8V1.2h-23.7v2.6c10.1,0,10.4,1.8,8.8,8.2l-15.5,62.3h-0.3l-15.4-60.5c-2.4-8.7-1.3-10,11.2-10V1.2
		h-32.7v2.6c6.6,0,8.7,1.4,10.5,8.2l4,15.1L445.3,74h-0.3l-15.3-57.5c-1.7-6.4,0.6-12.7,10.7-12.7V1.2h-32.7v2.6
		c6.6,0,8.8,1.4,10.6,8.2l21.3,78.5h5.2l17.7-55.9l15,55.9h5.4l20.2-78.5C504.8,5.2,507,3.8,513.5,3.8z"/>
</g>
</svg>
