<?xml version="1.0" encoding="UTF-8" standalone="no"?>
<svg
   xmlns:dc="http://purl.org/dc/elements/1.1/"
   xmlns:cc="http://creativecommons.org/ns#"
   xmlns:rdf="http://www.w3.org/1999/02/22-rdf-syntax-ns#"
   xmlns:svg="http://www.w3.org/2000/svg"
   xmlns="http://www.w3.org/2000/svg"
   xmlns:sodipodi="http://sodipodi.sourceforge.net/DTD/sodipodi-0.dtd"
   xmlns:inkscape="http://www.inkscape.org/namespaces/inkscape"
   width="58.38467mm"
   height="25.047239mm"
   viewBox="0 0 58.38467 25.047239"
   version="1.1"
   id="svg952"
   inkscape:version="1.0.1 (3bc2e813f5, 2020-09-07)"
   sodipodi:docname="logo-long.svg">
  <defs
     id="defs946" />
  <sodipodi:namedview
     id="base"
     pagecolor="#000000"
     bordercolor="#666666"
     borderopacity="1.0"
     inkscape:pageopacity="0"
     inkscape:pageshadow="2"
     inkscape:zoom="0.98994949"
     inkscape:cx="139.93219"
     inkscape:cy="115.91396"
     inkscape:document-units="mm"
     inkscape:current-layer="layer1"
     inkscape:document-rotation="0"
     showgrid="false"
     fit-margin-top="0"
     fit-margin-left="0"
     fit-margin-right="0"
     fit-margin-bottom="0"
     inkscape:window-width="1267"
     inkscape:window-height="1198"
     inkscape:window-x="1436"
     inkscape:window-y="126"
     inkscape:window-maximized="0" />
  <metadata
     id="metadata949">
    <rdf:RDF>
      <cc:Work
         rdf:about="">
        <dc:format>image/svg+xml</dc:format>
        <dc:type
           rdf:resource="http://purl.org/dc/dcmitype/StillImage" />
        <dc:title></dc:title>
      </cc:Work>
    </rdf:RDF>
  </metadata>
  <g
     inkscape:label="Layer 1"
     inkscape:groupmode="layer"
     id="layer1"
     style="opacity:0.998"
     transform="translate(-79.896311,-114.82023)">
    <g
       aria-label="Peu"
       id="text1517"
       style="font-size:35.2778px;line-height:1.25;font-family:'Readex Pro';-inkscape-font-specification:'Readex Pro';stroke-width:0.264583">
      <path
         d="m 79.896311,139.51469 v -24.69446 h 10.054174 q 2.010835,0 3.633613,1.02306 1.658057,0.98778 2.645836,2.71639 0.987778,1.72861 0.987778,3.84528 0,2.11667 -0.987778,3.84528 -0.987779,1.72861 -2.645836,2.78695 -1.622778,1.02305 -3.633613,1.02305 h -6.244171 v 9.45445 z m 3.810003,-13.12334 h 6.173615 q 0.952501,0 1.728613,-0.52916 0.776111,-0.56445 1.234723,-1.44639 0.493889,-0.91723 0.493889,-2.01084 0,-1.09361 -0.493889,-1.97556 -0.458612,-0.88194 -1.234723,-1.41111 -0.776112,-0.52917 -1.728613,-0.52917 h -6.173615 z"
         style="fill:#26f527;fill-opacity:1"
         id="path1525" />
      <path
         d="m 109.98824,139.86747 q -2.8575,0 -5.08001,-1.19944 -2.18722,-1.23473 -3.45722,-3.35139 -1.23472,-2.11667 -1.23472,-4.86834 0,-2.18722 0.70555,-3.98639 0.70556,-1.79917 1.94028,-3.10445 1.27,-1.34056 2.99861,-2.04611 1.76389,-0.74084 3.81001,-0.74084 1.79916,0 3.35139,0.70556 1.55222,0.67028 2.68111,1.86972 1.16417,1.19945 1.76389,2.85751 0.635,1.62278 0.59972,3.56305 l -0.0353,1.55223 H 102.8974 l -0.81139,-2.89278 h 12.80584 l -0.52917,0.59972 v -0.84667 q -0.10583,-1.16416 -0.77611,-2.08139 -0.67028,-0.91722 -1.69333,-1.44639 -1.02306,-0.52916 -2.2225,-0.52916 -1.905,0 -3.21028,0.74083 -1.30528,0.70556 -1.97556,2.11667 -0.67028,1.37583 -0.67028,3.42194 0,1.94028 0.81139,3.38667 0.81139,1.41112 2.29306,2.18723 1.48167,0.77611 3.42194,0.77611 1.37584,0 2.54001,-0.45861 1.19944,-0.45861 2.57528,-1.65806 l 1.83444,2.57528 q -0.84667,0.84667 -2.08139,1.48167 -1.19944,0.635 -2.57528,1.02305 -1.34055,0.35278 -2.64583,0.35278 z"
         style="fill:#0abcf7;fill-opacity:1"
         id="path1527" />
      <path
         d="m 128.50903,139.86747 q -1.97556,0 -3.45722,-0.91722 -1.44639,-0.91722 -2.25778,-2.57528 -0.77612,-1.65806 -0.77612,-3.95111 v -11.43001 h 3.63362 v 10.44223 q 0,2.43417 1.12889,3.84528 1.16417,1.41111 3.21028,1.41111 1.02305,0 1.86972,-0.3175 0.84667,-0.35278 1.44639,-0.9525 0.635,-0.59972 0.98778,-1.44639 0.35278,-0.84667 0.35278,-1.83445 v -11.14778 h 3.63361 v 18.52084 h -3.63361 v -3.88055 l 0.635,-0.42334 q -0.42334,1.30528 -1.44639,2.36362 -0.98778,1.05833 -2.36361,1.69333 -1.37584,0.59972 -2.96334,0.59972 z"
         style="fill:#ff157b;fill-opacity:1"
         id="path1529" />
    </g>
  </g>
</svg>
